<svg xmlns="http://www.w3.org/2000/svg" version="1.1" xmlns:xlink="http://www.w3.org/1999/xlink" xmlns:svgjs="http://svgjs.dev/svgjs" viewBox="0 0 1422 800"><defs><filter id="llleaves-blur-2" x="-100%" y="-100%" width="400%" height="400%"><feGaussianBlur in="SourceGraphic" stdDeviation="2"></feGaussianBlur></filter><filter id="llleaves-blur-3" x="-100%" y="-100%" width="400%" height="400%"><feGaussianBlur in="SourceGraphic" stdDeviation="4"></feGaussianBlur></filter><filter id="llleaves-blur-4" x="-100%" y="-100%" width="400%" height="400%"><feGaussianBlur in="SourceGraphic" stdDeviation="12"></feGaussianBlur></filter></defs><g fill="hsl(30, 100%, 40%)" data-darkreader-inline-fill="" style="--darkreader-inline-fill: #934a00;"><path d="M485 447H535C563 447 585 469 585 497H535C507 497 485 475 485 447Z " transform="matrix(-0.384566804803326,-0.11027275679336182,0.11027275679336182,-0.384566804803326,688.6944993633126,712.5114567516185)" opacity="0.61"></path><path d="M752 693H802C830 693 852 715 852 743H802C774 743 752 721 752 693Z " transform="matrix(-0.15735933204524963,-0.45700468382961573,0.45700468382961573,-0.15735933204524963,600.0728213106261,1197.501756839841)" opacity="0.74"></path><path d="M1295 57H1345C1373 57 1395 79 1395 107H1345C1317 107 1295 85 1295 57Z " transform="matrix(-0.16710043456304915,0.23864415254695995,-0.23864415254695995,-0.16710043456304915,1589.3189049961516,-225.2741495414911)" filter="url(#llleaves-blur-3)" opacity="0.45"></path><path d="M1283 701H1333C1361 701 1383 723 1383 751H1333C1305 751 1283 729 1283 701Z " transform="matrix(-0.16179388132042216,0.2398692933898405,-0.2398692933898405,-0.16179388132042216,1722.8163508011469,523.7165897499691)" filter="url(#llleaves-blur-3)" opacity="0.44"></path><path d="M1168 563H1218C1246 563 1268 585 1268 613H1218C1190 613 1168 591 1168 563Z " transform="matrix(-0.38179229775734413,-0.13896103205577218,0.13896103205577218,-0.38179229775734413,1601.3139318196509,981.748408125249)" opacity="0.62"></path><path d="M177 567H227C255 567 277 589 277 617H227C199 617 177 595 177 567Z " transform="matrix(-0.37653939336675935,-0.006572519559248326,0.006572519559248326,-0.37653939336675935,308.5835107151794,816.403282813071)" filter="url(#llleaves-blur-2)" opacity="0.58"></path><path d="M248 79H298C326 79 348 101 348 129H298C270 129 248 107 248 79Z " transform="matrix(-0.141908647316088,0.2457929871848373,-0.2457929871848373,-0.141908647316088,365.8512475674173,45.51218913979162)" filter="url(#llleaves-blur-3)" opacity="0.43"></path><path d="M134 393H184C212 393 234 415 234 443H184C156 443 134 421 134 393Z " transform="matrix(-0.38389015836897594,-0.0608022278793678,0.0608022278793678,-0.38389015836897594,229.22045788631587,589.6536961280356)" filter="url(#llleaves-blur-2)" opacity="0.60"></path><path d="M1149 408H1199C1227 408 1249 430 1249 458H1199C1171 458 1149 436 1149 408Z " transform="matrix(-0.3337008806413054,-0.2800082858696528,0.2800082858696528,-0.3337008806413054,1477.8637681073656,913.222416075399)" opacity="0.67"></path><path d="M881 414H931C959 414 981 436 981 464H931C903 464 881 442 881 414Z " transform="matrix(0.19516575093122848,-0.5084241635536987,0.5084241635536987,0.19516575093122848,526.1024780829525,826.6651316096841)" opacity="0.84"></path><path d="M1016 530H1066C1094 530 1116 552 1116 580H1066C1038 580 1016 558 1016 530Z " transform="matrix(0.16686743222543055,-0.5135651490509153,0.5135651490509153,0.16686743222543055,603.090659524433,1009.849024003162)" opacity="0.83"></path><path d="M279 445H329C357 445 379 467 379 495H329C301 495 279 473 279 445Z " transform="matrix(-0.3723814003955147,0.013003845046225884,-0.013003845046225884,-0.3723814003955147,457.62528790185047,640.7409931656836)" filter="url(#llleaves-blur-2)" opacity="0.57"></path><path d="M1043 184H1093C1121 184 1143 206 1143 234H1093C1065 234 1043 212 1043 184Z " transform="matrix(0.08234226497870607,-0.5198886002310799,0.5198886002310799,0.08234226497870607,894.3431869299786,760.0287066720208)" opacity="0.81"></path><path d="M835 48H885C913 48 935 70 935 98H885C857 98 835 76 835 48Z " transform="matrix(0.5425625431746746,-0.27644942368991665,0.27644942368991665,0.5425625431746746,384.6513413610491,278.05067431382497)" opacity="0.94"></path><path d="M761 327H811C839 327 861 349 861 377H811C783 377 761 355 761 327Z " transform="matrix(-0.15735933204524963,-0.45700468382961573,0.45700468382961573,-0.15735933204524963,777.7527695806726,778.0212834657463)" opacity="0.74"></path><path d="M111 201H161C189 201 211 223 211 251H161C133 251 111 229 111 201Z " transform="matrix(-0.3817261056758628,-0.13893694010836888,0.13893694010836888,-0.3817261056758628,191.05815454932255,334.6389472401924)" opacity="0.62"></path><path d="M3 84H53C81 84 103 106 103 134H53C25 134 3 112 3 84Z " transform="matrix(-0.30471783824664184,-0.3267698751220608,0.3267698751220608,-0.30471783824664184,33.532129038767394,159.53304775035318)" opacity="0.69"></path><path d="M505 263H555C583 263 605 285 605 313H555C527 313 505 291 505 263Z " transform="matrix(-0.384566804803326,-0.11027275679336182,0.11027275679336182,-0.384566804803326,736.6760227093578,459.9566198036738)" opacity="0.61"></path><path d="M935 702H985C1013 702 1035 724 1035 752H985C957 752 935 730 935 702Z " transform="matrix(0.24237033685295503,-0.4969328327344818,0.4969328327344818,0.24237033685295503,384.9950488018711,1040.2756053513663)" opacity="0.85"></path><path d="M722 509H772C800 509 822 531 822 559H772C744 559 722 537 722 509Z " transform="matrix(-0.233001637340408,-0.4035706741203239,0.4035706741203239,-0.233001637340408,736.3705240465421,969.9794347606678)" opacity="0.72"></path><path d="M587 708H637C665 708 687 730 687 758H637C609 758 587 736 587 708Z " transform="matrix(-0.3778154183496052,-0.1603731302651035,0.1603731302651035,-0.3778154183496052,760.1149170043777,1112.0963856291316)" opacity="0.63"></path><path d="M1016 344H1066C1094 344 1116 366 1116 394H1066C1038 394 1016 372 1016 344Z " transform="matrix(0.16686743222543055,-0.5135651490509153,0.5135651490509153,0.16686743222543055,698.6137772479033,854.8863663970919)" opacity="0.83"></path><path d="M373 565H423C451 565 473 587 473 615H423C395 615 373 593 373 565Z " transform="matrix(-0.38361197207925457,-0.06075816749956432,0.06075816749956432,-0.38361197207925457,549.4205453647817,842.0317683790759)" filter="url(#llleaves-blur-2)" opacity="0.60"></path></g><g fill="none" stroke-width="3" stroke="hsl(30, 100%, 40%)" data-darkreader-inline-stroke="" style="--darkreader-inline-stroke: #e68e37;"><path d="M416 702H466C494 702 516 724 516 752H466C438 752 416 730 416 702Z " transform="matrix(-0.3840732354656808,-0.08163728636006579,0.08163728636006579,-0.3840732354656808,585.6278205432394,1044.2642176273405)" filter="url(#llleaves-blur-2)" opacity="0.60"></path><path d="M671 44H721C749 44 771 66 771 94H721C693 94 671 72 671 44Z " transform="matrix(0.13853239974872425,-0.5170099543566801,0.5170099543566801,0.13853239974872425,585.4444529305589,432.20544150850435)" opacity="0.82"></path><path d="M899 224H949C977 224 999 246 999 274H949C921 274 899 252 899 224Z " transform="matrix(0.23301450743658533,-0.4997012237768831,0.4997012237768831,0.23301450743658533,603.4436277222367,665.1958490125522)" opacity="0.85"></path><path d="M20 511H70C98 511 120 533 120 561H70C42 561 20 539 20 511Z " transform="matrix(-0.14995481601143784,-0.4615134685585461,0.4615134685585461,-0.14995481601143784,-166.87438202658007,648.6817241812289)" opacity="0.75"></path><path d="M1306 217H1356C1384 217 1406 239 1406 267H1356C1328 267 1306 245 1306 217Z " transform="matrix(-0.16179388132042216,0.2398692933898405,-0.2398692933898405,-0.16179388132042216,1633.4408720708338,-44.108642557081566)" filter="url(#llleaves-blur-3)" opacity="0.44"></path><path d="M40 692H90C118 692 140 714 140 742H90C62 742 40 720 40 692Z " transform="matrix(-0.2742677107172628,-0.3639655452450282,0.3639655452450282,-0.2742677107172628,-146.27920197613162,946.40684765633)" opacity="0.70"></path><path d="M627 204H677C705 204 727 226 727 254H677C649 254 627 232 627 204Z " transform="matrix(-0.3683654356785498,-0.19586337644837476,0.19586337644837476,-0.3683654356785498,881.5306867477004,445.95519062593763)" opacity="0.64"></path><path d="M622 381H672C700 381 722 403 722 431H672C644 431 622 409 622 381Z " transform="matrix(-0.3683654356785498,-0.19586337644837476,0.19586337644837476,-0.3683654356785498,840.0210419379453,687.176555858799)" opacity="0.64"></path><path d="M1306 542H1356C1384 542 1406 564 1406 592H1356C1328 592 1306 570 1306 542Z " transform="matrix(-0.16179388132042216,0.2398692933898405,-0.2398692933898405,-0.16179388132042216,1711.3983924225317,333.4743688720556)" filter="url(#llleaves-blur-3)" opacity="0.44"></path><path d="M1297 381H1347C1375 381 1397 403 1397 431H1347C1319 431 1297 409 1297 381Z " transform="matrix(-0.16179388132042216,0.2398692933898405,-0.2398692933898405,-0.16179388132042216,1662.3232912548838,148.58437761997618)" filter="url(#llleaves-blur-3)" opacity="0.44"></path><path d="M571 570H621C649 570 671 592 671 620H621C593 620 571 598 571 570Z " transform="matrix(-0.38104747340638956,-0.13868993816226807,0.13868993816226807,-0.38104747340638956,775.1099677788184,907.8496982755703)" opacity="0.62"></path><path d="M1145 56H1195C1223 56 1245 78 1245 106H1195C1167 106 1145 84 1145 56Z " transform="matrix(-0.37887921513706674,-0.15307713933921546,0.15307713933921546,-0.37887921513706674,1635.361413802318,294.61639793646486)" opacity="0.63"></path><path d="M9 309H59C87 309 109 331 109 359H59C31 359 9 337 9 309Z " transform="matrix(0.01799434081853118,-0.5152905013385612,0.5152905013385612,0.01799434081853118,-114.16869355537278,358.3920297455857)" opacity="0.79"></path><path d="M1172 240H1222C1250 240 1272 262 1272 290H1222C1194 290 1172 268 1172 240Z " transform="matrix(-0.38179229775734413,-0.13896103205577218,0.13896103205577218,-0.38179229775734413,1651.7255143646948,535.9853400778497)" opacity="0.62"></path><path d="M381 346H431C459 346 481 368 481 396H431C403 396 381 374 381 346Z " transform="matrix(-0.38361197207925457,-0.06075816749956432,0.06075816749956432,-0.38361197207925457,573.7954798238204,539.5068118337157)" filter="url(#llleaves-blur-2)" opacity="0.60"></path><path d="M862 570H912C940 570 962 592 962 620H912C884 620 862 598 862 570Z " transform="matrix(0.12900224760257603,-0.5173997550676828,0.5173997550676828,0.12900224760257603,486.4970959211794,990.112239298194)" opacity="0.82"></path><path d="M380 37H430C458 37 480 59 480 87H430C402 87 380 65 380 37Z " transform="matrix(-0.25403272383439157,0.19142738790405034,-0.19142738790405034,-0.25403272383439157,551.1025692988395,-4.563747921009366)" filter="url(#llleaves-blur-2)" opacity="0.49"></path><path d="M245 267H295C323 267 345 289 345 317H295C267 317 245 295 245 267Z " transform="matrix(-0.36612366698543136,0.032031670309766024,-0.032031670309766024,-0.36612366698543136,412.3597294911539,389.45876801836494)" filter="url(#llleaves-blur-2)" opacity="0.56"></path><path d="M380 182H430C458 182 480 204 480 232H430C402 232 380 210 380 182Z " transform="matrix(-0.38361197207925457,-0.06075816749956432,0.06075816749956432,-0.38361197207925457,582.3762073216697,312.53369024521834)" filter="url(#llleaves-blur-2)" opacity="0.60"></path><path d="M1102 700H1152C1180 700 1202 722 1202 750H1152C1124 750 1102 728 1102 700Z " transform="matrix(-0.1343251418276868,-0.46844743978085407,0.46844743978085407,-0.1343251418276868,967.118169544376,1362.037178452617)" opacity="0.75"></path><path d="M983 49H1033C1061 49 1083 71 1083 99H1033C1005 99 983 77 983 49Z " transform="matrix(0.33397577042383636,-0.4596782122867999,0.4596782122867999,0.33397577042383636,653.9868414429538,524.1333862809004)" opacity="0.87"></path><path d="M123 38H173C201 38 223 60 223 88H173C145 88 123 66 123 38Z " transform="matrix(-0.1420224578882987,0.24599011287834474,-0.24599011287834474,-0.1420224578882987,213.0672623260114,29.39112531900917)" filter="url(#llleaves-blur-3)" opacity="0.43"></path><path d="M763 173H813C841 173 863 195 863 223H813C785 223 763 201 763 173Z " transform="matrix(-0.15735933204524963,-0.45700468382961573,0.45700468382961573,-0.15735933204524963,850.4462095545241,600.7019556984369)" opacity="0.74"></path><path d="M522 67H572C600 67 622 89 622 117H572C544 117 522 95 522 67Z " transform="matrix(-0.36186598871018866,-0.21743102198142414,0.21743102198142414,-0.36186598871018866,758.9836915199369,249.66221553471195)" opacity="0.65"></path><path d="M234 704H284C312 704 334 726 334 754H284C256 754 234 732 234 704Z " transform="matrix(-0.36612366698543136,0.032031670309766024,-0.032031670309766024,-0.36612366698543136,411.33020907968194,986.8071588644058)" filter="url(#llleaves-blur-2)" opacity="0.56"></path></g></svg>