<svg xmlns="http://www.w3.org/2000/svg" version="1.1" xmlns:xlink="http://www.w3.org/1999/xlink" xmlns:svgjs="http://svgjs.dev/svgjs" viewBox="0 0 2400 800"><defs><linearGradient x1="50%" y1="0%" x2="50%" y2="100%" id="sssurf-grad"><stop stop-color="hsl(335, 77%, 60%)" stop-opacity="1" offset="0%" data-darkreader-inline-stopcolor="" style="--darkreader-inline-stopcolor: #8b1244;"></stop><stop stop-color="hsl(335, 77%, 80%)" stop-opacity="1" offset="100%" data-darkreader-inline-stopcolor="" style="--darkreader-inline-stopcolor: #590c2b;"></stop></linearGradient></defs><g fill="url(#sssurf-grad)" transform="matrix(1,0,0,1,9.6998291015625,-18.038528442382812)"><path d="M-10,10C30.544871794871796,24.791666666666668,105.60897435897436,102.875,184.6153846153846,81C263.62179487179486,59.125,292.3076923076923,-82.5,369.2307692307692,-95C446.15384615384613,-107.5,476.9230769230769,2.041666666666668,553.8461538461538,21C630.7692307692307,39.95833333333333,661.5384615384615,-7.541666666666667,738.4615384615385,-4C815.3846153846154,-0.45833333333333304,846.1538461538462,37.375,923.0769230769231,38C1000,38.625,1030.7692307692307,-21,1107.6923076923076,-1C1184.6153846153845,19,1215.3846153846155,154,1292.3076923076924,134C1369.2307692307693,114,1400,-82.41666666666667,1476.923076923077,-97C1553.8461538461538,-111.58333333333333,1584.6153846153845,51.29166666666667,1661.5384615384614,64C1738.4615384615383,76.70833333333333,1769.2307692307693,-46.41666666666667,1846.1538461538462,-36C1923.076923076923,-25.583333333333332,1953.8461538461538,116.5,2030.7692307692307,114C2107.6923076923076,111.5,2138.461538461538,-45.291666666666664,2215.3846153846152,-48C2292.3076923076924,-50.708333333333336,2309.455128205128,7.666666666666657,2400,101C2490.544871794872,194.33333333333334,3254.1666666666665,233.54166666666669,2650,400C2045.8333333333335,566.4583333333333,156.25,795.8333333333334,-500,900" transform="matrix(1,0,0,1,0,139)" opacity="0.05"></path><path d="M-10,10C30.544871794871796,24.791666666666668,105.60897435897436,102.875,184.6153846153846,81C263.62179487179486,59.125,292.3076923076923,-82.5,369.2307692307692,-95C446.15384615384613,-107.5,476.9230769230769,2.041666666666668,553.8461538461538,21C630.7692307692307,39.95833333333333,661.5384615384615,-7.541666666666667,738.4615384615385,-4C815.3846153846154,-0.45833333333333304,846.1538461538462,37.375,923.0769230769231,38C1000,38.625,1030.7692307692307,-21,1107.6923076923076,-1C1184.6153846153845,19,1215.3846153846155,154,1292.3076923076924,134C1369.2307692307693,114,1400,-82.41666666666667,1476.923076923077,-97C1553.8461538461538,-111.58333333333333,1584.6153846153845,51.29166666666667,1661.5384615384614,64C1738.4615384615383,76.70833333333333,1769.2307692307693,-46.41666666666667,1846.1538461538462,-36C1923.076923076923,-25.583333333333332,1953.8461538461538,116.5,2030.7692307692307,114C2107.6923076923076,111.5,2138.461538461538,-45.291666666666664,2215.3846153846152,-48C2292.3076923076924,-50.708333333333336,2309.455128205128,7.666666666666657,2400,101C2490.544871794872,194.33333333333334,3254.1666666666665,233.54166666666669,2650,400C2045.8333333333335,566.4583333333333,156.25,795.8333333333334,-500,900" transform="matrix(1,0,0,1,0,278)" opacity="0.29"></path><path d="M-10,10C30.544871794871796,24.791666666666668,105.60897435897436,102.875,184.6153846153846,81C263.62179487179486,59.125,292.3076923076923,-82.5,369.2307692307692,-95C446.15384615384613,-107.5,476.9230769230769,2.041666666666668,553.8461538461538,21C630.7692307692307,39.95833333333333,661.5384615384615,-7.541666666666667,738.4615384615385,-4C815.3846153846154,-0.45833333333333304,846.1538461538462,37.375,923.0769230769231,38C1000,38.625,1030.7692307692307,-21,1107.6923076923076,-1C1184.6153846153845,19,1215.3846153846155,154,1292.3076923076924,134C1369.2307692307693,114,1400,-82.41666666666667,1476.923076923077,-97C1553.8461538461538,-111.58333333333333,1584.6153846153845,51.29166666666667,1661.5384615384614,64C1738.4615384615383,76.70833333333333,1769.2307692307693,-46.41666666666667,1846.1538461538462,-36C1923.076923076923,-25.583333333333332,1953.8461538461538,116.5,2030.7692307692307,114C2107.6923076923076,111.5,2138.461538461538,-45.291666666666664,2215.3846153846152,-48C2292.3076923076924,-50.708333333333336,2309.455128205128,7.666666666666657,2400,101C2490.544871794872,194.33333333333334,3254.1666666666665,233.54166666666669,2650,400C2045.8333333333335,566.4583333333333,156.25,795.8333333333334,-500,900" transform="matrix(1,0,0,1,0,417)" opacity="0.53"></path><path d="M-10,10C30.544871794871796,24.791666666666668,105.60897435897436,102.875,184.6153846153846,81C263.62179487179486,59.125,292.3076923076923,-82.5,369.2307692307692,-95C446.15384615384613,-107.5,476.9230769230769,2.041666666666668,553.8461538461538,21C630.7692307692307,39.95833333333333,661.5384615384615,-7.541666666666667,738.4615384615385,-4C815.3846153846154,-0.45833333333333304,846.1538461538462,37.375,923.0769230769231,38C1000,38.625,1030.7692307692307,-21,1107.6923076923076,-1C1184.6153846153845,19,1215.3846153846155,154,1292.3076923076924,134C1369.2307692307693,114,1400,-82.41666666666667,1476.923076923077,-97C1553.8461538461538,-111.58333333333333,1584.6153846153845,51.29166666666667,1661.5384615384614,64C1738.4615384615383,76.70833333333333,1769.2307692307693,-46.41666666666667,1846.1538461538462,-36C1923.076923076923,-25.583333333333332,1953.8461538461538,116.5,2030.7692307692307,114C2107.6923076923076,111.5,2138.461538461538,-45.291666666666664,2215.3846153846152,-48C2292.3076923076924,-50.708333333333336,2309.455128205128,7.666666666666657,2400,101C2490.544871794872,194.33333333333334,3254.1666666666665,233.54166666666669,2650,400C2045.8333333333335,566.4583333333333,156.25,795.8333333333334,-500,900" transform="matrix(1,0,0,1,0,556)" opacity="0.76"></path><path d="M-10,10C30.544871794871796,24.791666666666668,105.60897435897436,102.875,184.6153846153846,81C263.62179487179486,59.125,292.3076923076923,-82.5,369.2307692307692,-95C446.15384615384613,-107.5,476.9230769230769,2.041666666666668,553.8461538461538,21C630.7692307692307,39.95833333333333,661.5384615384615,-7.541666666666667,738.4615384615385,-4C815.3846153846154,-0.45833333333333304,846.1538461538462,37.375,923.0769230769231,38C1000,38.625,1030.7692307692307,-21,1107.6923076923076,-1C1184.6153846153845,19,1215.3846153846155,154,1292.3076923076924,134C1369.2307692307693,114,1400,-82.41666666666667,1476.923076923077,-97C1553.8461538461538,-111.58333333333333,1584.6153846153845,51.29166666666667,1661.5384615384614,64C1738.4615384615383,76.70833333333333,1769.2307692307693,-46.41666666666667,1846.1538461538462,-36C1923.076923076923,-25.583333333333332,1953.8461538461538,116.5,2030.7692307692307,114C2107.6923076923076,111.5,2138.461538461538,-45.291666666666664,2215.3846153846152,-48C2292.3076923076924,-50.708333333333336,2309.455128205128,7.666666666666657,2400,101C2490.544871794872,194.33333333333334,3254.1666666666665,233.54166666666669,2650,400C2045.8333333333335,566.4583333333333,156.25,795.8333333333334,-500,900" transform="matrix(1,0,0,1,0,695)" opacity="1.00"></path></g></svg>