<svg xmlns="http://www.w3.org/2000/svg" viewBox="0 0 300 300" xml:space="preserve"><path fill="#FFDA88" d="M183.169 270.991h-66.886l-15.782-90.956h98.447z"/><path fill="#FFDA88" d="M206.025 149.146c-.396.024-.814.056-1.187.071v7.113c0 4.807-3.901 8.708-8.711 8.708a8.709 8.709 0 0 1-8.708-8.708v-7.213h-24.082v10.005c0 4.555-3.694 8.249-8.246 8.249-3.901 0-7.148-2.714-8.009-6.352l.041 2.874c0 7.24-5.873 13.113-13.107 13.113-7.24 0-13.272-5.872-13.272-13.113v-6.562c0 5.544-4.659 10.04-10.203 10.04s-10.04-4.496-10.04-10.04v-8.214h-6.775a8.973 8.973 0 0 0-8.977 8.975v12.97a8.973 8.973 0 0 0 8.977 8.974h111.998a8.973 8.973 0 0 0 8.972-8.974v-12.97c-.001-4.856-3.861-8.784-8.671-8.946z"/><path fill="#FFE2A9" d="m100.501 180.035 15.782 90.956h13.261l-15.783-90.956z"/><path fill="#FFE2A9" d="M98.009 171.061v-12.97c0-2.401.956-4.57 2.492-6.18v-2.794h-6.775a8.973 8.973 0 0 0-8.977 8.975v12.97a8.973 8.973 0 0 0 8.977 8.974h13.261a8.974 8.974 0 0 1-8.978-8.975z"/><path fill="#FFC67B" d="M151.237 225.515a4.547 4.547 0 0 0-4.546-4.546h-14.445l-1.394-7.314h27.802a4.547 4.547 0 0 0 0-9.092h-29.54l-1.607-8.43c-.474-2.468-2.883-4.07-5.319-3.614a4.548 4.548 0 0 0-3.614 5.319l1.282 6.725h-3.004a4.547 4.547 0 0 0 0 9.092h4.742l1.394 7.314h-1.083a4.548 4.548 0 0 0-4.547 4.546 4.548 4.548 0 0 0 4.547 4.546h2.818l1.219 6.387a4.55 4.55 0 0 0 5.319 3.614 4.548 4.548 0 0 0 3.614-5.319l-.894-4.682h12.71a4.547 4.547 0 0 0 4.546-4.546zM175.325 240.806h-.885l2.898-16.25a4.545 4.545 0 0 0-3.676-5.275c-2.471-.426-4.837 1.205-5.274 3.676l-3.182 17.849h-12.234a4.547 4.547 0 0 0 0 9.093h10.611l-.689 3.874a4.546 4.546 0 0 0 4.481 5.346 4.542 4.542 0 0 0 4.469-3.747l.977-5.473h2.504a4.547 4.547 0 0 0 0-9.093z"/><path fill="#9AE8CE" d="M122.023 86.49c0-6.84-5.544-12.383-12.385-12.383-6.642 0-12.047 5.231-12.354 11.809l-.039-.021-.021.006c-.311-6.562-5.712-11.794-12.349-11.794-6.84 0-12.381 5.542-12.381 12.383 0 3.046 1.098 5.828 2.916 7.983l21.847 21.847 21.847-21.847-.006-.003a12.299 12.299 0 0 0 2.925-7.98z"/><path fill="#AEF4DB" d="M82.931 94.473a12.337 12.337 0 0 1-2.915-7.983c0-5.52 3.635-10.144 8.625-11.741-1.193-.383-2.442-.642-3.765-.642-6.84 0-12.381 5.542-12.381 12.383 0 3.046 1.098 5.828 2.916 7.983l21.847 21.847 3.759-3.762-18.086-18.085z"/><path fill="#F4F4F4" d="M85.456 104.522c-.074 1.021-.148 2.045-.118 3.141 0 0-21.966 7.894-14.294 26.997 5.805 14.456 29.457 14.456 29.457 14.456v8.214c0 5.544 4.496 10.04 10.04 10.04 5.544 0 10.203-4.496 10.203-10.04v6.562c0 7.24 6.032 13.113 13.272 13.113 7.234 0 13.107-5.872 13.107-13.113l-.041-2.874c.861 3.638 4.108 6.352 8.009 6.352a8.249 8.249 0 0 0 8.246-8.249v-10.005h24.082v7.213a8.709 8.709 0 0 0 8.708 8.708c4.81 0 8.711-3.901 8.711-8.708v-7.113c6.237-.225 15.685-1.631 19.408-7.805 10.256-17.013.157-25.112-9.563-31.591 0 0 5.242-24.834-17.952-23.499 0 0 2.217-14.292-21.078-23.471 0 0-26.675-9.18-23.217-33.842 0 0-24.636 7.12-15.347 31.141 0 0-19.71-4.589-27.388 13.963 6.811.035 12.322 5.557 12.322 12.377 0 3.046-1.101 5.828-2.925 7.98l.006.003-21.847 21.848-11.801-11.798z"/><path fill="#F9F9F9" d="M145.803 60.149c-5.292-13.691.432-21.886 6.337-26.407a30.52 30.52 0 0 1 .296-4.734s-24.423 7.068-15.448 30.853c4.961-.603 8.815.288 8.815.288zM159.454 166.094a8.25 8.25 0 0 1-3.658-5.076l.041 2.874c0 1.205-.216 2.347-.518 3.454a8.16 8.16 0 0 0 4.135-1.252zM122.023 86.49c0 3.046-1.101 5.828-2.925 7.98l.006.003-17.49 17.49 4.357 4.357 21.847-21.847-.006-.003a12.299 12.299 0 0 0 2.925-7.98c0-6.82-5.512-12.342-12.322-12.377 4.108-9.928 11.647-13.204 17.783-14.129-3.919-.626-19.793-2.07-26.497 14.129 6.81.035 12.322 5.557 12.322 12.377zM196.133 156.329v-7.213h-8.714v7.213a8.709 8.709 0 0 0 8.708 8.708c1.596 0 3.072-.462 4.357-1.211-2.59-1.509-4.351-4.285-4.351-7.497zM109.215 157.33v-8.214s-23.653 0-29.457-14.456c-5.63-14.015 4.689-21.992 10.588-25.248l-4.89-4.89c-.074 1.021-.148 2.045-.118 3.141 0 0-21.966 7.894-14.294 26.997 5.805 14.456 29.457 14.456 29.457 14.456v8.214c0 5.544 4.496 10.04 10.04 10.04 1.563 0 3.037-.388 4.372-1.024-3.36-1.623-5.698-5.035-5.698-9.016z"/><path fill="#FE6F80" d="M183.071 66.398c15.356 8.907 13.66 19.924 13.66 19.924 2.989-.169 5.491.103 7.607.692l17.23-6.636-.003-.009a12.323 12.323 0 0 0 5.908-6.109c2.773-6.251-.044-13.567-6.299-16.341-6.071-2.693-13.13-.103-16.081 5.779l-.027-.031-.021-.003c2.38-6.124-.441-13.098-6.503-15.79-6.254-2.774-13.568.044-16.339 6.296a12.351 12.351 0 0 0-.577 8.482l1.445 3.746z"/><path fill="#FFA1AA" d="M202.793 86.321s1.696-11.017-13.66-19.924l-1.445-3.746a12.352 12.352 0 0 1 .577-8.482c1.604-3.623 4.751-6.041 8.318-6.938-5.754-1.479-11.893 1.329-14.38 6.938a12.351 12.351 0 0 0-.577 8.482l1.445 3.746c15.356 8.907 13.66 19.924 13.66 19.924 2.989-.169 5.491.103 7.607.692l1.755-.675a27.973 27.973 0 0 0-3.3-.017z"/><path fill="#9AE8CE" d="M152.753 63.879a3.03 3.03 0 0 1-3.031 3.031 3.029 3.029 0 0 1-3.031-3.031 3.028 3.028 0 0 1 3.031-3.031 3.03 3.03 0 0 1 3.031 3.031z"/><path fill="#FE6F80" d="M177.219 83.983a3.029 3.029 0 0 1-3.031 3.031 3.03 3.03 0 0 1-3.031-3.031 3.029 3.029 0 0 1 3.031-3.031 3.028 3.028 0 0 1 3.031 3.031zM164.716 106.037a3.029 3.029 0 0 1-3.031 3.031 3.029 3.029 0 0 1-3.031-3.031 3.03 3.03 0 0 1 3.031-3.031 3.029 3.029 0 0 1 3.031 3.031z"/><path fill="#9AE8CE" d="M137.059 113.289a3.029 3.029 0 0 1-3.031 3.031 3.03 3.03 0 0 1-3.031-3.031 3.03 3.03 0 0 1 3.031-3.031 3.03 3.03 0 0 1 3.031 3.031z"/><circle fill="#9AE8CE" cx="158.655" cy="135.101" r="3.031"/><g><path fill="#FE6F80" d="M129.103 143.69a3.029 3.029 0 0 1-3.031 3.031 3.03 3.03 0 0 1-3.031-3.031 3.03 3.03 0 0 1 3.031-3.031 3.03 3.03 0 0 1 3.031 3.031z"/></g><g><circle fill="#FE6F80" cx="204.838" cy="135.101" r="3.031"/></g><g><path fill="#9AE8CE" d="M95.004 132.07a3.029 3.029 0 0 1-3.031 3.031c-1.675 0-3.031-1.356-3.031-3.031s1.356-3.031 3.031-3.031a3.028 3.028 0 0 1 3.031 3.031z"/></g><g><path fill="#FE6F80" d="M140.09 83.983a3.029 3.029 0 0 1-3.031 3.031 3.03 3.03 0 0 1-3.031-3.031 3.029 3.029 0 0 1 3.031-3.031 3.029 3.029 0 0 1 3.031 3.031z"/></g><g><path fill="#9AE8CE" d="M193.511 113.289a3.029 3.029 0 0 1-3.031 3.031 3.03 3.03 0 0 1-3.031-3.031 3.03 3.03 0 0 1 3.031-3.031 3.03 3.03 0 0 1 3.031 3.031z"/></g><g><path fill="#161616" d="M183.169 275.537h-66.885a4.541 4.541 0 0 1-4.478-3.768l-15.782-90.956a4.543 4.543 0 0 1 4.478-5.325h98.447a4.545 4.545 0 0 1 4.478 5.325l-3.303 19.032c-.429 2.471-2.776 4.144-5.257 3.7a4.546 4.546 0 0 1-3.7-5.257l2.377-13.707h-87.641l14.205 81.863h59.237l8.329-48.01c.426-2.475 2.768-4.15 5.257-3.7a4.546 4.546 0 0 1 3.7 5.257l-8.983 51.778a4.544 4.544 0 0 1-4.479 3.768zM97.257 120.866a4.535 4.535 0 0 1-3.215-1.332L72.195 97.687a4.598 4.598 0 0 1-.26-.284 16.943 16.943 0 0 1-3.987-10.913c0-9.336 7.595-16.929 16.928-16.929a16.86 16.86 0 0 1 12.381 5.386 16.85 16.85 0 0 1 12.381-5.386c9.336 0 16.931 7.594 16.931 16.929 0 3.901-1.356 7.69-3.821 10.703-.13.175-.272.34-.429.494l-21.847 21.847a4.535 4.535 0 0 1-3.215 1.332zM78.775 91.409l18.482 18.482 18.437-18.44a7.688 7.688 0 0 0 1.782-4.961c0-4.322-3.516-7.838-7.838-7.838-4.185 0-7.616 3.286-7.814 7.477a4.541 4.541 0 0 1-6.222 4.01 4.555 4.555 0 0 1-2.918-4.023c-.198-4.185-3.629-7.465-7.808-7.465-4.322 0-7.835 3.516-7.835 7.838 0 1.818.6 3.514 1.734 4.92zM204.338 91.56c-.409 0-.82-.056-1.22-.166-1.743-.485-3.809-.678-6.13-.533a4.62 4.62 0 0 1-3.623-1.483 4.543 4.543 0 0 1-1.128-3.75c.024-.243.746-8.226-11.449-15.298a4.545 4.545 0 0 1-1.959-2.297l-1.445-3.746a4.119 4.119 0 0 1-.124-.37 16.95 16.95 0 0 1 .79-11.594 16.799 16.799 0 0 1 9.38-8.927 16.813 16.813 0 0 1 12.956.323 16.867 16.867 0 0 1 9.131 9.945 16.863 16.863 0 0 1 13.5.099 16.812 16.812 0 0 1 8.933 9.387 16.818 16.818 0 0 1-.323 12.953 16.939 16.939 0 0 1-7.773 8.205 4.617 4.617 0 0 1-.654.311l-17.23 6.636a4.478 4.478 0 0 1-1.632.305zm-3.371-9.729c1.054.089 2.075.234 3.055.432l15.628-6.019a7.821 7.821 0 0 0 3.667-3.83 7.779 7.779 0 0 0 .151-5.994 7.794 7.794 0 0 0-4.138-4.345 7.816 7.816 0 0 0-10.173 3.661 4.546 4.546 0 0 1-3.51 2.474c-1.356.184-2.697-.284-3.679-1.211a4.559 4.559 0 0 1-1.161-4.983 7.812 7.812 0 0 0-4.108-9.987 7.79 7.79 0 0 0-5.997-.149 7.772 7.772 0 0 0-4.342 4.132 7.753 7.753 0 0 0-.411 5.207l.805 2.09c10.113 6.333 13.283 13.697 14.213 18.522z"/><path fill="#161616" d="M134.016 181.551c-7.566 0-14.045-4.697-16.626-11.304a14.793 14.793 0 0 1-6.849 1.669c-8.042 0-14.587-6.544-14.587-14.587v-3.949c-6.621-.696-18.837-3.09-25.71-11.363a4.547 4.547 0 0 1 6.991-5.813c5.656 6.808 18.719 8.347 23.277 8.365a4.551 4.551 0 0 1 4.535 4.546v8.214a5.502 5.502 0 0 0 5.494 5.494c3.066 0 5.656-2.516 5.656-5.494a4.547 4.547 0 0 1 9.093 0v6.562c0 4.724 3.913 8.566 8.726 8.566 4.721 0 8.56-3.842 8.56-8.566l-.042-2.809a4.546 4.546 0 0 1 3.987-4.576 4.533 4.533 0 0 1 4.984 3.463 3.677 3.677 0 0 0 3.585 2.853c2.039 0 3.7-1.661 3.7-3.703v-10.005a4.547 4.547 0 0 1 4.546-4.546h24.082a4.547 4.547 0 0 1 4.546 4.546v7.213a4.168 4.168 0 0 0 4.162 4.162 4.169 4.169 0 0 0 4.165-4.162v-7.113a4.546 4.546 0 0 1 4.384-4.544c7.986-.287 13.702-2.332 15.679-5.609 7.983-13.246 1.64-18.908-8.193-25.461a4.542 4.542 0 0 1-1.927-4.721c.542-2.652 1.16-10.496-2.489-14.714-2.149-2.483-5.801-3.573-10.753-3.309-1.359.112-2.702-.465-3.626-1.48a4.551 4.551 0 0 1-1.128-3.753c.035-.355.977-10.968-18.251-18.545-8.992-3.09-24.644-13.249-26.266-30.813-2.475 1.606-5.132 3.943-6.713 7.163-2.045 4.166-1.936 9.239.323 15.079a4.55 4.55 0 0 1-.808 4.622 4.57 4.57 0 0 1-4.464 1.446c-.639-.142-16.087-3.398-22.158 11.276a4.547 4.547 0 0 1-4.422 2.802c-3.62.071-6.672 2.587-7.456 6.165a4.537 4.537 0 0 1-1.868 2.773l-.559.379a4.52 4.52 0 0 1-4.333.486 4.548 4.548 0 0 1-2.75-3.386c-.681-3.718-3.892-6.417-7.637-6.417-4.322 0-7.835 3.513-7.835 7.835 0 1.817.601 3.513 1.735 4.919l9.895 9.898a4.54 4.54 0 0 1 1.32 3.543c-.062.873-.133 1.752-.109 2.691a4.542 4.542 0 0 1-3.004 4.398c-.065.027-8.048 3.016-11.431 9.208a4.549 4.549 0 0 1-7.981-4.363c3.164-5.784 8.572-9.507 12.296-11.529l-7.565-7.569a4.598 4.598 0 0 1-.26-.284 16.937 16.937 0 0 1-3.987-10.913c0-9.336 7.595-16.929 16.928-16.929a16.8 16.8 0 0 1 12.352 5.411 16.733 16.733 0 0 1 9.463-5.158c5.813-11.209 16.149-14.535 24.227-14.757-1.039-5.708-.382-10.974 1.968-15.716 5.387-10.864 17.762-14.55 18.289-14.7a4.554 4.554 0 0 1 4.239.932 4.54 4.54 0 0 1 1.524 4.065c-2.886 20.585 19.263 28.585 20.208 28.917 17.872 7.04 22.646 17.171 23.821 23.261 5.813.465 10.407 2.623 13.693 6.444 5.266 6.124 5.331 14.788 4.911 19.379 8.196 5.701 20.438 16.43 8.569 36.12-3.851 6.387-11.659 8.847-18.754 9.673v2.898c0 7.308-5.947 13.255-13.257 13.255-7.308 0-13.255-5.947-13.255-13.255v-2.667h-14.989v5.458c0 7.057-5.739 12.796-12.793 12.796a12.81 12.81 0 0 1-4.905-.971c-2.735 6.251-8.954 10.608-16.173 10.608z"/><path fill="#161616" d="M205.723 184.582H93.726c-7.456 0-13.524-6.065-13.524-13.521v-12.97c0-7.456 6.068-13.521 13.524-13.521h6.775a4.547 4.547 0 0 1 4.546 4.546v8.214a5.502 5.502 0 0 0 5.494 5.494c3.066 0 5.656-2.516 5.656-5.494a4.547 4.547 0 0 1 9.093 0v6.562c0 4.724 3.913 8.566 8.726 8.566 4.721 0 8.56-3.842 8.56-8.566l-.042-2.809a4.546 4.546 0 0 1 3.987-4.576 4.533 4.533 0 0 1 4.984 3.463 3.677 3.677 0 0 0 3.585 2.853c2.039 0 3.7-1.661 3.7-3.703v-10.005a4.547 4.547 0 0 1 4.546-4.546h24.082a4.547 4.547 0 0 1 4.546 4.546v7.213a4.168 4.168 0 0 0 4.162 4.162 4.169 4.169 0 0 0 4.165-4.162v-7.113a4.547 4.547 0 0 1 4.366-4.544l1.095-.065c.145-.006.287-.015.426-.006 7.326.249 13.062 6.172 13.062 13.488v12.97c.001 7.459-6.064 13.524-13.517 13.524zm-58.414-9.093h58.414a4.432 4.432 0 0 0 4.425-4.428v-12.97a4.38 4.38 0 0 0-.764-2.483v.722c0 7.308-5.947 13.255-13.257 13.255-7.308 0-13.255-5.947-13.255-13.255v-2.667h-14.989v5.458c0 7.057-5.739 12.796-12.793 12.796a12.81 12.81 0 0 1-4.905-.971 17.754 17.754 0 0 1-2.876 4.543zm-53.583-21.827a4.435 4.435 0 0 0-4.431 4.428v12.97a4.435 4.435 0 0 0 4.431 4.428h26.864a17.601 17.601 0 0 1-3.2-5.242 14.793 14.793 0 0 1-6.849 1.669c-8.042 0-14.587-6.544-14.587-14.587v-3.667h-2.228zM152.753 63.879a3.03 3.03 0 0 1-3.031 3.031 3.029 3.029 0 0 1-3.031-3.031 3.028 3.028 0 0 1 3.031-3.031 3.03 3.03 0 0 1 3.031 3.031zM177.219 83.983a3.029 3.029 0 0 1-3.031 3.031 3.03 3.03 0 0 1-3.031-3.031 3.029 3.029 0 0 1 3.031-3.031 3.028 3.028 0 0 1 3.031 3.031zM164.716 106.037a3.029 3.029 0 0 1-3.031 3.031 3.029 3.029 0 0 1-3.031-3.031 3.03 3.03 0 0 1 3.031-3.031 3.029 3.029 0 0 1 3.031 3.031zM137.059 113.289a3.029 3.029 0 0 1-3.031 3.031 3.03 3.03 0 0 1-3.031-3.031 3.03 3.03 0 0 1 3.031-3.031 3.03 3.03 0 0 1 3.031 3.031z"/><circle fill="#161616" cx="158.655" cy="135.101" r="3.031"/><path fill="#161616" d="M129.103 143.69a3.029 3.029 0 0 1-3.031 3.031 3.03 3.03 0 0 1-3.031-3.031 3.03 3.03 0 0 1 3.031-3.031 3.03 3.03 0 0 1 3.031 3.031z"/><circle fill="#161616" cx="204.838" cy="135.101" r="3.031"/><path fill="#161616" d="M95.004 132.07a3.029 3.029 0 0 1-3.031 3.031c-1.675 0-3.031-1.356-3.031-3.031s1.356-3.031 3.031-3.031a3.028 3.028 0 0 1 3.031 3.031zM140.09 83.983a3.029 3.029 0 0 1-3.031 3.031 3.03 3.03 0 0 1-3.031-3.031 3.029 3.029 0 0 1 3.031-3.031 3.029 3.029 0 0 1 3.031 3.031zM193.511 113.289a3.029 3.029 0 0 1-3.031 3.031 3.03 3.03 0 0 1-3.031-3.031 3.03 3.03 0 0 1 3.031-3.031 3.03 3.03 0 0 1 3.031 3.031zM151.237 225.515a4.547 4.547 0 0 0-4.546-4.546h-14.445l-1.394-7.314h27.802a4.547 4.547 0 0 0 0-9.092h-29.54l-1.607-8.43c-.474-2.468-2.883-4.07-5.319-3.614a4.548 4.548 0 0 0-3.614 5.319l1.282 6.725h-3.004a4.547 4.547 0 0 0 0 9.092h4.742l1.394 7.314h-1.083a4.548 4.548 0 0 0-4.547 4.546 4.548 4.548 0 0 0 4.547 4.546h2.818l1.219 6.387a4.55 4.55 0 0 0 5.319 3.614 4.548 4.548 0 0 0 3.614-5.319l-.894-4.682h12.71a4.547 4.547 0 0 0 4.546-4.546zM175.325 240.806h-.885l2.898-16.25a4.545 4.545 0 0 0-3.676-5.275c-2.471-.426-4.837 1.205-5.274 3.676l-3.182 17.849h-12.234a4.547 4.547 0 0 0 0 9.093h10.611l-.689 3.874a4.546 4.546 0 0 0 4.481 5.346 4.542 4.542 0 0 0 4.469-3.747l.977-5.473h2.504a4.547 4.547 0 0 0 0-9.093z"/></g></svg>